<svg width="16" height="18" viewBox="0 0 16 18" fill="none" xmlns="http://www.w3.org/2000/svg">
<path d="M14.0271 16.2H2.21161V6.3H14.0271M11.4952 0V1.8H4.74351V0H3.05558V1.8H2.21161C1.27481 1.8 0.523682 2.601 0.523682 3.6V16.2C0.523682 16.6774 0.701517 17.1352 1.01807 17.4728C1.33461 17.8104 1.76395 18 2.21161 18H14.0271C14.4748 18 14.9041 17.8104 15.2207 17.4728C15.5372 17.1352 15.7151 16.6774 15.7151 16.2V3.6C15.7151 2.601 14.9555 1.8 14.0271 1.8H13.1832V0M12.3392 9.9H8.11938V14.4H12.3392V9.9Z" fill="#2e2c38"/>
</svg>
