<svg width="19" height="18" viewBox="0 0 19 18" fill="none" xmlns="http://www.w3.org/2000/svg">
<path d="M9.50646 0C8.3843 0 7.27312 0.232792 6.23637 0.685084C5.19963 1.13738 4.25762 1.80031 3.46412 2.63604C1.86159 4.32387 0.961304 6.61305 0.961304 9C0.961304 11.3869 1.86159 13.6761 3.46412 15.364C4.25762 16.1997 5.19963 16.8626 6.23637 17.3149C7.27312 17.7672 8.3843 18 9.50646 18C11.7728 18 13.9463 17.0518 15.5488 15.364C17.1513 13.6761 18.0516 11.3869 18.0516 9C18.0516 7.8181 17.8306 6.64778 17.4012 5.55585C16.9717 4.46392 16.3423 3.47177 15.5488 2.63604C14.7553 1.80031 13.8133 1.13738 12.7766 0.685084C11.7398 0.232792 10.6286 0 9.50646 0ZM13.0954 12.78L8.65195 9.9V4.5H9.93372V9.18L13.779 11.61L13.0954 12.78Z" fill="#2e2c38"/>
</svg>
