<?xml version="1.0" encoding="utf-8"?>
<!-- Generator: Adobe Illustrator 24.3.0, SVG Export Plug-In . SVG Version: 6.00 Build 0)  -->
<svg version="1.1" id="Ebene_1" xmlns="http://www.w3.org/2000/svg" xmlns:xlink="http://www.w3.org/1999/xlink" x="0px" y="0px"
	 viewBox="0 0 315.1 311.49" style="enable-background:new 0 0 315.1 311.49;" xml:space="preserve">
<style type="text/css">
	.st0{fill:#fff;}
</style>
<g>
	<path class="st0" d="M63.47,178.47c-0.06,0.06-0.11,0.12-0.17,0.18c0.3-0.31,0.61-0.6,0.92-0.9
		C63.97,177.99,63.71,178.22,63.47,178.47z"/>
	<path class="st0" d="M66.07,251.88c0.15,0.13,0.32,0.26,0.47,0.39c-0.37-0.32-0.74-0.64-1.1-0.97
		C65.65,251.49,65.86,251.69,66.07,251.88z"/>
	<path class="st0" d="M131.84,251.88c0.12-0.1,0.22-0.21,0.34-0.31c-0.43,0.38-0.87,0.76-1.32,1.12
		C131.19,252.42,131.52,252.16,131.84,251.88z"/>
	<path class="st0" d="M54.8,190.11c-8.18,15.13-8.02,33.55,0.47,48.55C46.84,223.7,46.7,205.19,54.8,190.11z"/>
	<path class="st0" d="M29.13,57.02c-4.35,4.35-3.29,12.45,2.36,18.1l44.11,44.11l0,0l23.69,23.76c0,0,0,0,0,0
		c0.05,0.05,0.09,0.09,0.14,0.14c0.02,0.02,0.03,0.03,0.05,0.05c0.03,0.03,0.06,0.06,0.09,0.09c8.95,9.12,34.89,35.21,34.89,35.21
		c0.63,0.63,1.23,1.26,1.82,1.91c0.2,0.22,0.38,0.44,0.57,0.66c0.38,0.44,0.76,0.87,1.13,1.32c0.22,0.27,0.42,0.55,0.64,0.82
		c0.32,0.41,0.64,0.81,0.94,1.23c0.22,0.3,0.42,0.6,0.63,0.9c0.28,0.4,0.56,0.8,0.83,1.21c0.21,0.32,0.4,0.64,0.6,0.96
		c0.25,0.4,0.5,0.8,0.74,1.21c0.19,0.33,0.37,0.67,0.56,1c0.22,0.4,0.45,0.8,0.66,1.21c0.18,0.34,0.34,0.69,0.51,1.04
		c0.2,0.41,0.4,0.81,0.59,1.23c0.16,0.35,0.31,0.71,0.46,1.07c0.18,0.41,0.35,0.82,0.51,1.24c0.14,0.36,0.28,0.72,0.41,1.09
		c0.15,0.42,0.31,0.83,0.45,1.25c0.12,0.37,0.24,0.74,0.36,1.11c0.13,0.42,0.26,0.84,0.38,1.26c0.11,0.37,0.21,0.75,0.3,1.12
		c0.11,0.42,0.22,0.85,0.31,1.28c0.09,0.38,0.17,0.76,0.25,1.14c0.09,0.43,0.17,0.85,0.25,1.28c0.07,0.38,0.13,0.76,0.19,1.15
		c0.07,0.43,0.13,0.86,0.18,1.29c0.05,0.38,0.1,0.77,0.14,1.15c0.05,0.43,0.08,0.87,0.12,1.3c0.03,0.38,0.06,0.77,0.08,1.15
		c0.03,0.44,0.04,0.87,0.06,1.31c0.01,0.38,0.02,0.77,0.03,1.15c0,0.44,0,0.88-0.01,1.32c-0.01,0.38-0.01,0.76-0.03,1.14
		c-0.02,0.44-0.05,0.88-0.08,1.32c-0.03,0.38-0.05,0.76-0.08,1.14c-0.04,0.44-0.09,0.88-0.14,1.32c-0.04,0.37-0.08,0.75-0.13,1.12
		c-0.06,0.45-0.14,0.89-0.21,1.34c-0.06,0.37-0.12,0.73-0.19,1.1c-0.09,0.45-0.19,0.91-0.29,1.36c-0.08,0.35-0.15,0.71-0.23,1.06
		c-0.11,0.47-0.24,0.93-0.37,1.4c-0.09,0.33-0.17,0.66-0.27,0.99c-0.14,0.49-0.31,0.98-0.47,1.47c-0.1,0.3-0.19,0.6-0.29,0.9
		c-0.2,0.58-0.42,1.15-0.65,1.73c-0.08,0.2-0.15,0.4-0.23,0.6c-0.31,0.77-0.64,1.54-1,2.3c-0.09,0.18-0.18,0.36-0.27,0.55
		c-0.27,0.57-0.55,1.14-0.85,1.71c-0.15,0.28-0.31,0.55-0.46,0.83c-0.25,0.46-0.51,0.92-0.78,1.38c-0.18,0.3-0.38,0.6-0.56,0.9
		c-0.26,0.42-0.52,0.84-0.79,1.25c-0.21,0.31-0.43,0.61-0.64,0.92c-0.28,0.39-0.55,0.79-0.84,1.18c-0.23,0.31-0.47,0.61-0.71,0.92
		c-0.29,0.38-0.58,0.75-0.89,1.12c-0.25,0.3-0.52,0.6-0.78,0.9c-0.31,0.36-0.62,0.72-0.94,1.07c-0.27,0.3-0.56,0.59-0.84,0.88
		c-0.23,0.24-0.46,0.49-0.69,0.73c-0.1,0.1-0.2,0.19-0.3,0.28c-0.32,0.32-0.65,0.62-0.98,0.93c-0.33,0.31-0.65,0.61-0.99,0.91
		c-0.11,0.1-0.22,0.21-0.34,0.31c-0.32,0.28-0.65,0.54-0.98,0.81c-0.18,0.15-0.35,0.3-0.53,0.44c-0.59,0.47-1.19,0.93-1.8,1.38
		c-0.06,0.05-0.12,0.1-0.19,0.14c-0.68,0.49-1.38,0.97-2.08,1.43c-0.19,0.12-0.39,0.24-0.58,0.36c-0.47,0.3-0.95,0.59-1.43,0.87
		c-0.42,0.24-0.84,0.47-1.26,0.7c-0.25,0.14-0.49,0.27-0.74,0.4c-0.54,0.28-1.08,0.55-1.62,0.81c-0.11,0.05-0.22,0.11-0.34,0.16
		c-14.63,6.87-31.89,6.29-46.08-1.75c-0.27-0.15-0.54-0.3-0.81-0.45c-0.28-0.17-0.56-0.35-0.85-0.52c-0.44-0.27-0.87-0.54-1.3-0.82
		c-0.23-0.15-0.46-0.32-0.69-0.47c-0.47-0.32-0.93-0.65-1.39-0.98c-0.22-0.16-0.43-0.32-0.64-0.48c-0.46-0.35-0.91-0.7-1.35-1.07
		c-0.22-0.18-0.44-0.36-0.66-0.55c-0.16-0.13-0.32-0.26-0.47-0.39c-0.22-0.19-0.42-0.39-0.63-0.58c-0.33-0.3-0.67-0.6-0.99-0.91
		c-0.32-0.31-0.64-0.62-0.96-0.94c-0.32-0.32-0.64-0.64-0.95-0.97c-0.31-0.32-0.61-0.66-0.91-0.99c-0.19-0.21-0.39-0.42-0.58-0.63
		c-0.13-0.15-0.26-0.31-0.39-0.47c-0.19-0.22-0.37-0.44-0.55-0.67c-0.36-0.44-0.72-0.89-1.06-1.34c-0.17-0.22-0.33-0.44-0.49-0.65
		c-0.33-0.45-0.65-0.91-0.97-1.36c-0.17-0.24-0.34-0.48-0.5-0.73c-0.27-0.41-0.53-0.83-0.79-1.25c-0.19-0.31-0.38-0.61-0.57-0.92
		c-0.15-0.26-0.3-0.53-0.45-0.8c-8.49-15-8.65-33.43-0.47-48.55c0.05-0.09,0.1-0.18,0.15-0.28c0.29-0.53,0.6-1.06,0.91-1.59
		c0.14-0.23,0.28-0.46,0.42-0.69c0.26-0.42,0.52-0.83,0.79-1.24c0.24-0.36,0.48-0.71,0.73-1.06c0.21-0.3,0.41-0.6,0.63-0.89
		c0.4-0.54,0.81-1.08,1.23-1.61c0.09-0.11,0.17-0.23,0.26-0.34c0.51-0.63,1.03-1.25,1.58-1.86c0.02-0.03,0.05-0.05,0.08-0.08
		c0.12-0.14,0.25-0.26,0.37-0.4c0.45-0.49,0.9-0.96,1.35-1.43c0.06-0.06,0.11-0.12,0.17-0.18c0.24-0.24,0.5-0.48,0.75-0.72
		c0.21-0.2,0.42-0.41,0.64-0.61c0.35-0.32,0.71-0.64,1.06-0.95c0.19-0.17,0.38-0.34,0.57-0.51c0.47-0.4,0.95-0.79,1.44-1.17
		c0.08-0.07,0.16-0.14,0.25-0.2c0.57-0.44,1.15-0.87,1.73-1.29c0.17-0.12,0.35-0.24,0.53-0.36c0.41-0.29,0.82-0.57,1.24-0.84
		c0.23-0.15,0.46-0.29,0.69-0.43c0.37-0.23,0.74-0.46,1.12-0.68c0.26-0.15,0.51-0.29,0.77-0.44c0.36-0.2,0.71-0.4,1.07-0.6
		c0.27-0.14,0.54-0.28,0.82-0.42c0.23-0.12,0.46-0.24,0.69-0.36c6.47-3.18,8.05-11.67,2.95-16.76c-3.09-3.09-7.8-3.98-11.73-2.08
		c-6.97,3.37-13.5,7.94-19.29,13.72c-28.37,28.37-27.7,74.79,2.01,102.32c26.89,24.91,69.06,25.03,96.08,0.26
		c19.32-17.7,26.49-43.34,21.56-66.96l0.02,0.01c0-0.01,0-0.01-0.01-0.02c0,0,0,0,0,0c-0.01-0.04-0.03-0.08-0.04-0.12
		c-1.93-9.17-5.7-18.03-11.29-26c-4.33-6.69-10.53-14.55-19.58-23.6l-46.17-46.17l-1.62-1.62L47.23,59.37
		C41.58,53.72,33.48,52.67,29.13,57.02z"/>
</g>
<g>
	<path class="st0" d="M250.95,133.56c0.06-0.06,0.11-0.12,0.17-0.18c-0.3,0.31-0.61,0.6-0.92,0.9
		C250.45,134.04,250.7,133.81,250.95,133.56z"/>
	<path class="st0" d="M248.34,60.15c-0.15-0.13-0.32-0.26-0.47-0.39c0.37,0.32,0.74,0.64,1.1,0.97
		C248.76,60.54,248.56,60.34,248.34,60.15z"/>
	<path class="st0" d="M182.57,60.15c-0.12,0.1-0.22,0.21-0.34,0.31c0.43-0.38,0.87-0.76,1.32-1.12
		C183.22,59.61,182.89,59.87,182.57,60.15z"/>
	<path class="st0" d="M259.62,121.92c8.18-15.13,8.02-33.55-0.47-48.55C267.58,88.33,267.72,106.84,259.62,121.92z"/>
	<path class="st0" d="M285.29,255.01c4.35-4.35,3.29-12.45-2.36-18.1l-44.11-44.11l0,0l-23.69-23.76c0,0,0,0,0,0
		c-0.05-0.05-0.09-0.09-0.14-0.14c-0.02-0.02-0.03-0.03-0.05-0.05c-0.03-0.03-0.06-0.06-0.09-0.09
		c-8.95-9.12-34.89-35.21-34.89-35.21c-0.63-0.63-1.23-1.26-1.82-1.91c-0.2-0.22-0.38-0.44-0.57-0.66
		c-0.38-0.44-0.76-0.87-1.13-1.32c-0.22-0.27-0.42-0.55-0.64-0.82c-0.32-0.41-0.64-0.81-0.94-1.23c-0.22-0.3-0.42-0.6-0.63-0.9
		c-0.28-0.4-0.56-0.8-0.83-1.21c-0.21-0.32-0.4-0.64-0.6-0.96c-0.25-0.4-0.5-0.8-0.74-1.21c-0.19-0.33-0.37-0.67-0.56-1
		c-0.22-0.4-0.45-0.8-0.66-1.21c-0.18-0.34-0.34-0.69-0.51-1.04c-0.2-0.41-0.4-0.81-0.59-1.23c-0.16-0.35-0.31-0.71-0.46-1.07
		c-0.18-0.41-0.35-0.82-0.51-1.24c-0.14-0.36-0.28-0.72-0.41-1.09c-0.15-0.42-0.31-0.83-0.45-1.25c-0.12-0.37-0.24-0.74-0.36-1.11
		c-0.13-0.42-0.26-0.84-0.38-1.26c-0.11-0.37-0.21-0.75-0.3-1.12c-0.11-0.42-0.22-0.85-0.31-1.28c-0.09-0.38-0.17-0.76-0.25-1.14
		c-0.09-0.43-0.17-0.85-0.25-1.28c-0.07-0.38-0.13-0.76-0.19-1.15c-0.07-0.43-0.13-0.86-0.18-1.29c-0.05-0.38-0.1-0.77-0.14-1.15
		c-0.05-0.43-0.08-0.87-0.12-1.3c-0.03-0.38-0.06-0.77-0.08-1.15c-0.03-0.44-0.04-0.87-0.06-1.31c-0.01-0.38-0.02-0.77-0.03-1.15
		c0-0.44,0-0.88,0.01-1.32c0.01-0.38,0.01-0.76,0.03-1.14c0.02-0.44,0.05-0.88,0.08-1.32c0.03-0.38,0.05-0.76,0.08-1.14
		c0.04-0.44,0.09-0.88,0.14-1.32c0.04-0.37,0.08-0.75,0.13-1.12c0.06-0.45,0.14-0.89,0.21-1.34c0.06-0.37,0.12-0.73,0.19-1.1
		c0.09-0.45,0.19-0.91,0.29-1.36c0.08-0.35,0.15-0.71,0.23-1.06c0.11-0.47,0.24-0.93,0.37-1.4c0.09-0.33,0.17-0.66,0.27-0.99
		c0.14-0.49,0.31-0.98,0.47-1.47c0.1-0.3,0.19-0.6,0.29-0.9c0.2-0.58,0.42-1.15,0.65-1.73c0.08-0.2,0.15-0.4,0.23-0.6
		c0.31-0.77,0.64-1.54,1-2.3c0.09-0.18,0.18-0.36,0.27-0.55c0.27-0.57,0.55-1.14,0.85-1.71c0.15-0.28,0.31-0.55,0.46-0.83
		c0.25-0.46,0.51-0.92,0.78-1.38c0.18-0.3,0.38-0.6,0.56-0.9c0.26-0.42,0.52-0.84,0.79-1.25c0.21-0.31,0.43-0.61,0.64-0.92
		c0.28-0.39,0.55-0.79,0.84-1.18c0.23-0.31,0.47-0.61,0.71-0.92c0.29-0.38,0.58-0.75,0.89-1.12c0.25-0.3,0.52-0.6,0.78-0.9
		c0.31-0.36,0.62-0.72,0.94-1.07c0.27-0.3,0.56-0.59,0.84-0.88c0.23-0.24,0.46-0.49,0.69-0.73c0.1-0.1,0.2-0.19,0.3-0.28
		c0.32-0.32,0.65-0.62,0.98-0.93c0.33-0.31,0.65-0.61,0.99-0.91c0.11-0.1,0.22-0.21,0.34-0.31c0.32-0.28,0.65-0.54,0.98-0.81
		c0.18-0.15,0.35-0.3,0.53-0.44c0.59-0.47,1.19-0.93,1.8-1.38c0.06-0.05,0.12-0.1,0.19-0.14c0.68-0.49,1.38-0.97,2.08-1.43
		c0.19-0.12,0.39-0.24,0.58-0.36c0.47-0.3,0.95-0.59,1.43-0.87c0.42-0.24,0.84-0.47,1.26-0.7c0.25-0.13,0.49-0.27,0.74-0.4
		c0.54-0.28,1.08-0.55,1.62-0.81c0.11-0.05,0.22-0.11,0.34-0.16c14.63-6.87,31.89-6.29,46.08,1.75c0.27,0.15,0.54,0.3,0.81,0.45
		c0.28,0.17,0.56,0.35,0.85,0.52c0.44,0.27,0.87,0.54,1.3,0.82c0.23,0.15,0.46,0.32,0.69,0.47c0.47,0.32,0.93,0.65,1.39,0.98
		c0.22,0.16,0.43,0.32,0.64,0.48c0.46,0.35,0.91,0.7,1.35,1.07c0.22,0.18,0.44,0.36,0.66,0.55c0.16,0.13,0.32,0.26,0.47,0.39
		c0.22,0.19,0.42,0.39,0.63,0.58c0.33,0.3,0.67,0.6,0.99,0.91c0.32,0.31,0.64,0.62,0.96,0.94c0.32,0.32,0.64,0.64,0.95,0.97
		c0.31,0.32,0.61,0.66,0.91,0.99c0.19,0.21,0.39,0.42,0.58,0.63c0.13,0.15,0.26,0.31,0.39,0.47c0.19,0.22,0.37,0.44,0.55,0.67
		c0.36,0.44,0.72,0.89,1.06,1.34c0.17,0.22,0.33,0.44,0.49,0.65c0.33,0.45,0.65,0.91,0.97,1.36c0.17,0.24,0.34,0.48,0.5,0.73
		c0.27,0.41,0.53,0.83,0.79,1.25c0.19,0.31,0.38,0.61,0.57,0.92c0.15,0.26,0.3,0.53,0.45,0.8c8.49,15,8.65,33.43,0.47,48.55
		c-0.05,0.09-0.1,0.18-0.15,0.28c-0.29,0.53-0.6,1.06-0.91,1.59c-0.14,0.23-0.28,0.46-0.42,0.69c-0.26,0.42-0.52,0.83-0.79,1.24
		c-0.24,0.36-0.48,0.71-0.73,1.06c-0.21,0.3-0.41,0.6-0.63,0.89c-0.4,0.54-0.81,1.08-1.23,1.61c-0.09,0.11-0.17,0.23-0.26,0.34
		c-0.51,0.63-1.03,1.25-1.58,1.86c-0.02,0.03-0.05,0.05-0.08,0.08c-0.12,0.14-0.25,0.26-0.37,0.4c-0.45,0.49-0.9,0.96-1.35,1.43
		c-0.06,0.06-0.11,0.12-0.17,0.18c-0.24,0.24-0.5,0.48-0.75,0.72c-0.21,0.2-0.42,0.41-0.64,0.61c-0.35,0.32-0.71,0.64-1.06,0.95
		c-0.19,0.17-0.38,0.34-0.57,0.51c-0.47,0.4-0.95,0.79-1.44,1.17c-0.08,0.07-0.16,0.14-0.25,0.2c-0.57,0.44-1.15,0.87-1.73,1.29
		c-0.17,0.12-0.35,0.24-0.53,0.36c-0.41,0.29-0.82,0.57-1.24,0.84c-0.23,0.15-0.46,0.29-0.69,0.43c-0.37,0.23-0.74,0.46-1.12,0.68
		c-0.26,0.15-0.51,0.29-0.77,0.44c-0.36,0.2-0.71,0.4-1.07,0.6c-0.27,0.14-0.54,0.28-0.82,0.42c-0.23,0.12-0.46,0.24-0.69,0.36
		c-6.47,3.18-8.05,11.67-2.95,16.76c3.09,3.09,7.8,3.98,11.73,2.08c6.97-3.37,13.5-7.94,19.29-13.72
		c28.37-28.37,27.7-74.79-2.01-102.32c-26.89-24.91-69.06-25.03-96.08-0.26c-19.32,17.7-26.49,43.34-21.56,66.96l-0.02-0.01
		c0,0.01,0,0.01,0.01,0.02c0,0,0,0,0,0c0.01,0.04,0.03,0.08,0.04,0.12c1.93,9.17,5.7,18.03,11.29,26
		c4.33,6.69,10.53,14.55,19.58,23.6l46.17,46.17l1.62,1.62l42.49,42.49C272.83,258.31,280.94,259.36,285.29,255.01z"/>
</g>
</svg>
